# xmcd
#
# Track frame offsets:
# 150
# 16480
# 37285
# 57120
# 75500
# 92743
# 108983
# 127721
# 148652
# 164297
# 181286
# 198424
# 216169
# 231428
#
# Disc length: 3254 seconds
#
# Revision: 1
# Processed by: cddbd v1.5.1PL0 Copyright (c) Steve Scherf et al.
# Submitted via: Axialis_AX_CDPlayer 2.6
#
DISCID=bd0cb40e
DTITLE=Leann Rimes - The Best Of LeAnn Rimes (Remixed(
DYEAR=2004
DGENRE=
TTITLE0=Can't fight the moonlight (Latino Mix)
TTITLE1=Soon (Graham Stack Radio Edit)
TTITLE2=I need you (Dave Aude Radio Edit)
TTITLE3=But I do love you (Almighty Radio Edit)
TTITLE4=We can (Widelife Radio Edit)
TTITLE5=Last thing on my mind (Metro Mix)
TTITLE6=Suddenly (Riva Radio Edit)
TTITLE7=Sittin' on top of the world (Aurora Borealis Radio Edit)
TTITLE8=The right kind of wrong (Graham Stack Radio Edit)
TTITLE9=You are (Bertoldo Radio Edit)
TTITLE10=Tic toc (Thunderpuss Radio Edit)
TTITLE11=How do I live (Mr. Big Dance Radio Edit)
TTITLE12=Life goes on (Peter Amato Radio Edit)
TTITLE13=Somewhere over the rainbow ('A Cappella' Version)
EXTD=YEAR: 2004
EXTT0=
EXTT1=
EXTT2=
EXTT3=
EXTT4=
EXTT5=
EXTT6=
EXTT7=
EXTT8=
EXTT9=
EXTT10=
EXTT11=
EXTT12=
EXTT13=
PLAYORDER=
